# xmcd
#
# Track frame offsets:
#	150
#	15520
#	33977
#	54174
#	75719
#	94429
#	110001
#	125304
#	139422
#	156104
#	174536
#	189831
#	208291
#	228485
#	250028
#	268738
#	284313
#	299613
#	313730
#	330415
#
# Disc length: 4651 seconds
#
# Revision: 1
# Processed by: cddbd v1.5.1PL2 Copyright (c) Steve Scherf et al.
# Submitted via: audiograbber 1.83.01
#
DISCID=22122914
DTITLE=Top Hits Monthly Best of Country - Thmbc05
DYEAR=1900
DGENRE=Karaoke
TTITLE0=Chad Brock - Yes (Vocal)
TTITLE1=Jo Dee Messina - Because You Love Me (Vocal) (Vocal)
TTITLE2=Mark Wills - Back At One (Vocal)
TTITLE3=Martina Mcbride - Love's The Only House (Vocal)
TTITLE4=Jessica Andrews - Unbreakable Heart (Vocal)
TTITLE5=Andy Griggs - She's More (Vocal)
TTITLE6=Wilkinsons - Jimmy's Got A Girlfriend (Vocal)
TTITLE7=Faith Hill - Way You Love Me (Vocal)
TTITLE8=Collin Raye - Couldn't Last A Moment (Vocal)
TTITLE9=Clay Walker - Chain Of Love (Vocal)
TTITLE10=Chad Brock - Yes
TTITLE11=Jo Dee Messina - Because You Love Me
TTITLE12=Mark Wills - Back At One
TTITLE13=Martina Mcbride - Love's The Only House
TTITLE14=Jessica Andrews - Unbreakable Heart
TTITLE15=Andy Griggs - She's More
TTITLE16=Wilkinsons - Jimmy's Got A Girlfriend
TTITLE17=Faith Hill - Way You Love Me
TTITLE18=Collin Raye - Couldn't Last A Moment
TTITLE19=Clay Walker - Chain Of Love
EXTD=
EXTT0=
EXTT1=
EXTT2=
EXTT3=
EXTT4=
EXTT5=
EXTT6=
EXTT7=
EXTT8=
EXTT9=
EXTT10=
EXTT11=
EXTT12=
EXTT13=
EXTT14=
EXTT15=
EXTT16=
EXTT17=
EXTT18=
EXTT19=
PLAYORDER=
